<?xml version="1.0" ?><svg data-name="Layer 1" id="Layer_1" viewBox="0 0 32 32" xmlns="http://www.w3.org/2000/svg" xmlns:xlink="http://www.w3.org/1999/xlink"><defs><style>.cls-1{fill:url(#linear-gradient);}.cls-2{fill:#f8edeb;}.cls-3{fill:#fec601;}</style><linearGradient gradientUnits="userSpaceOnUse" id="linear-gradient" x1="4.73" x2="27.27" y1="4.73" y2="27.27"><stop offset="0" stop-color="#ff9ed0"/><stop offset="1" stop-color="#fc7ec4"/></linearGradient></defs><rect class="cls-1" height="28" rx="2.5" width="20" x="6" y="2"/><path class="cls-2" d="M22.5,16H20V13h2.5a.5.5,0,0,0,0-1h-3a.5.5,0,0,0-.5.5v9a.5.5,0,0,0,1,0V17h2.5a.5.5,0,0,0,0-1Z"/><path class="cls-2" d="M11,13a1,1,0,0,1,1,1,.5.5,0,0,0,1,0,2,2,0,0,0-4,0v6a2,2,0,0,0,4,0V17.5a.5.5,0,0,0-.5-.5h-1a.5.5,0,0,0,0,1H12v2a1,1,0,0,1-2,0V14A1,1,0,0,1,11,13Z"/><path class="cls-2" d="M16,12a.5.5,0,0,0-.5.5v9a.5.5,0,0,0,1,0v-9A.5.5,0,0,0,16,12Z"/><path class="cls-3" d="M15.67,5.23a.69.69,0,0,0-.68,0l-1.05.52A1,1,0,0,0,13,5H10A1,1,0,0,0,9,6V8a1,1,0,0,0,1,1h3a1,1,0,0,0,.94-.72L15,8.8a.68.68,0,0,0,.31.08.7.7,0,0,0,.37-.11A.69.69,0,0,0,16,8.18V5.82A.69.69,0,0,0,15.67,5.23ZM10,8V6h3V8Zm5-.31-1-.5V6.81l1-.5Z"/></svg>