<svg width="20" height="20" viewBox="0 0 20 20" fill="none" xmlns="http://www.w3.org/2000/svg">
<g opacity="0.2">
<path fill-rule="evenodd" clip-rule="evenodd" d="M11.294 15.6519C11.1426 15.7781 10.9679 15.8732 10.7798 15.9319C10.5917 15.9905 10.3939 16.0115 10.1977 15.9937C10.0015 15.9758 9.8107 15.9195 9.63624 15.828C9.46179 15.7364 9.30709 15.6113 9.18098 15.4599L5.84798 11.4599C5.71628 11.3094 5.61602 11.1341 5.5531 10.9442C5.49017 10.7543 5.46585 10.5538 5.48157 10.3544C5.49728 10.155 5.55272 9.96079 5.64461 9.78314C5.7365 9.60548 5.863 9.448 6.01665 9.31996C6.17031 9.19191 6.34802 9.09589 6.53933 9.03754C6.73064 8.97919 6.93169 8.95969 7.13065 8.98019C7.32961 9.00069 7.52246 9.06077 7.69786 9.1569C7.87325 9.25303 8.02766 9.38326 8.15198 9.53995L11.486 13.5399C11.7405 13.8455 11.8632 14.2397 11.8272 14.6357C11.7912 15.0317 11.5994 15.3973 11.294 15.6519Z" fill="#333333"/>
<path fill-rule="evenodd" clip-rule="evenodd" d="M11.294 5.34801C11.5995 5.60268 11.7913 5.96822 11.8273 6.36426C11.8633 6.7603 11.7405 7.15443 11.486 7.46001L8.15203 11.46C7.89419 11.7547 7.53132 11.9369 7.14094 11.9677C6.75056 11.9985 6.36363 11.8754 6.0628 11.6247C5.76197 11.374 5.5711 11.0156 5.53097 10.6261C5.49084 10.2365 5.60463 9.84676 5.84803 9.54001L9.18103 5.54001C9.30714 5.38863 9.46184 5.26358 9.6363 5.172C9.81075 5.08042 10.0015 5.02411 10.1978 5.00628C10.394 4.98845 10.5918 5.00945 10.7799 5.06808C10.968 5.12672 11.1427 5.22184 11.294 5.34801Z" fill="#333333"/>
<path fill-rule="evenodd" clip-rule="evenodd" d="M7.5 10.5C7.5 10.1022 7.65804 9.72064 7.93934 9.43934C8.22064 9.15804 8.60218 9 9 9H17C17.3978 9 17.7794 9.15804 18.0607 9.43934C18.342 9.72064 18.5 10.1022 18.5 10.5C18.5 10.8978 18.342 11.2794 18.0607 11.5607C17.7794 11.842 17.3978 12 17 12H9C8.60218 12 8.22064 11.842 7.93934 11.5607C7.65804 11.2794 7.5 10.8978 7.5 10.5Z" fill="#333333"/>
</g>
<path fill-rule="evenodd" clip-rule="evenodd" d="M8.65301 14.3841C8.55115 14.4689 8.41977 14.5098 8.28776 14.4978C8.15575 14.4858 8.0339 14.4219 7.94901 14.3201L4.61601 10.3201C4.53488 10.2178 4.49695 10.0879 4.51032 9.95804C4.5237 9.82819 4.58732 9.70873 4.6876 9.62517C4.78788 9.5416 4.91685 9.50057 5.04698 9.51082C5.17711 9.52108 5.29806 9.58182 5.38401 9.68006L8.71701 13.6801C8.80184 13.7819 8.84275 13.9133 8.83075 14.0453C8.81875 14.1773 8.75482 14.2992 8.65301 14.3841Z" fill="#333333"/>
<path fill-rule="evenodd" clip-rule="evenodd" d="M8.65301 5.61604C8.75482 5.70093 8.81875 5.82278 8.83075 5.95479C8.84275 6.08681 8.80184 6.21818 8.71701 6.32004L5.38401 10.32C5.29806 10.4183 5.17711 10.479 5.04698 10.4893C4.91685 10.4995 4.78788 10.4585 4.6876 10.3749C4.58732 10.2914 4.5237 10.1719 4.51032 10.0421C4.49695 9.91222 4.53488 9.7823 4.61601 9.68004L7.94901 5.68004C8.0339 5.57823 8.15575 5.5143 8.28776 5.5023C8.41977 5.4903 8.55115 5.53121 8.65301 5.61604Z" fill="#333333"/>
<path fill-rule="evenodd" clip-rule="evenodd" d="M5 10C5 9.86739 5.05268 9.74021 5.14645 9.64645C5.24021 9.55268 5.36739 9.5 5.5 9.5H15C15.1326 9.5 15.2598 9.55268 15.3536 9.64645C15.4473 9.74021 15.5 9.86739 15.5 10C15.5 10.1326 15.4473 10.2598 15.3536 10.3536C15.2598 10.4473 15.1326 10.5 15 10.5H5.5C5.36739 10.5 5.24021 10.4473 5.14645 10.3536C5.05268 10.2598 5 10.1326 5 10Z" fill="#333333"/>
</svg>
