<svg width="24" height="24" viewBox="0 0 24 24" fill="none" xmlns="http://www.w3.org/2000/svg">
<path d="M12 21.0001C11.199 21.0001 10.445 20.6881 9.87898 20.1211C9.31298 19.5541 8.99898 18.8001 8.99998 17.9981C8.99998 17.2521 9.27098 17.0001 9.76398 16.0001H4.92798C3.27398 16.0001 1.92798 14.6531 1.92798 13.0001C1.92798 11.3461 3.27398 10.0001 4.92798 10.0001H9.76398C9.26998 9.00006 8.99998 8.74506 8.99998 7.99906C8.99904 7.60488 9.07634 7.21444 9.2274 6.85036C9.37846 6.48628 9.60027 6.15579 9.87998 5.87806C11.012 4.74606 12.988 4.74506 14.121 5.87906L21.242 13.0001L14.121 20.1211C13.8432 20.4006 13.5127 20.6223 13.1486 20.7732C12.7845 20.9241 12.3941 21.0012 12 21.0001ZM4.92798 12.0001C4.6705 12.0116 4.42738 12.122 4.24925 12.3082C4.07113 12.4945 3.97171 12.7423 3.97171 13.0001C3.97171 13.2578 4.07113 13.5056 4.24925 13.6919C4.42738 13.8782 4.6705 13.9885 4.92798 14.0001H14.586L11.293 17.2931C11.1998 17.3854 11.1259 17.4954 11.0756 17.6166C11.0253 17.7378 10.9996 17.8678 11 17.9991C11 18.2681 11.104 18.5181 11.293 18.7071C11.4833 18.8891 11.7366 18.9907 12 18.9907C12.2634 18.9907 12.5166 18.8891 12.707 18.7071L18.414 13.0001L12.707 7.29306C12.5166 7.11103 12.2634 7.00944 12 7.00944C11.7366 7.00944 11.4833 7.11103 11.293 7.29306C11.1998 7.38545 11.1259 7.49544 11.0756 7.61664C11.0253 7.73784 10.9996 7.86783 11 7.99906C11 8.26706 11.104 8.51806 11.293 8.70706L14.586 12.0001H4.92798Z" fill="#333333"/>
</svg>
