<svg width="16" height="15" viewBox="0 0 16 15" fill="none" xmlns="http://www.w3.org/2000/svg">
<path d="M9.50961 4.04027V4.4921C9.31295 4.4921 9.12634 4.56367 8.98396 4.69382C8.95674 4.71848 8.92396 4.73619 8.88842 4.74544C8.85287 4.75468 8.81562 4.75519 8.77984 4.74691C8.74409 4.7386 8.71091 4.72169 8.68319 4.69763C8.65547 4.67358 8.63405 4.64311 8.62079 4.60888C8.3451 3.90013 7.6303 3.42391 6.84203 3.42391C6.2983 3.42391 5.7801 3.64828 5.42031 4.03956C5.11143 4.3746 4.94148 4.80337 4.94148 5.24711C4.94148 5.34583 4.8775 5.43555 4.78328 5.46508C4.31324 5.61267 3.96315 5.99151 3.86711 6.45487C3.86668 6.45846 3.86619 6.4619 3.86556 6.46499C3.85016 6.54627 3.84227 6.62879 3.842 6.71151C3.842 7.43559 4.45654 8.02474 5.21155 8.02474H8.78912V8.47656H5.21155C4.20721 8.47656 3.39003 7.68478 3.39003 6.71151C3.39003 6.60689 3.39953 6.50275 3.41921 6.3937C3.41992 6.388 3.42076 6.3828 3.42189 6.37753C3.53628 5.79899 3.9415 5.31778 4.49535 5.0894C4.53191 4.58765 4.73898 4.11206 5.08787 3.7337C5.53267 3.24974 6.17223 2.97208 6.84203 2.97208C7.71686 2.97208 8.51997 3.45063 8.92201 4.18757C9.10264 4.09051 9.30456 4.03989 9.50961 4.04027ZM14.4666 13.4664C14.0906 13.8424 13.4784 13.8422 13.1024 13.4666L10.0228 10.3894C10.5431 9.99749 10.9937 9.52087 11.3559 8.97951L14.4678 12.1042C14.8425 12.4801 14.8418 13.0912 14.4666 13.4664ZM1.25197 5.78592C1.25197 2.85845 3.63437 0.47683 6.56268 0.47683C9.49105 0.47683 11.8734 2.85845 11.8734 5.78592C11.8734 8.71338 9.49105 11.095 6.56268 11.095C3.63437 11.095 1.25197 8.71338 1.25197 5.78592ZM14.7883 11.7854L11.5984 8.58253C12.0759 7.72785 12.3263 6.76496 12.3254 5.78592C12.3254 2.60948 9.74031 0.0250015 6.56268 0.0250015C3.38511 0.0250015 0.800003 2.60948 0.800003 5.78592C0.800003 8.96256 3.38511 11.5468 6.56268 11.5468C7.69583 11.5468 8.75228 11.217 9.64447 10.6499L12.7828 13.7864C13.059 14.0622 13.4217 14.2 13.7844 14.2C14.1471 14.2 14.51 14.062 14.7862 13.7859C15.3372 13.2349 15.338 12.3376 14.7883 11.7854ZM6.56268 9.73938C4.38214 9.73938 2.60788 7.96575 2.60788 5.78585C2.60788 3.60595 4.38214 1.83224 6.56268 1.83224C8.74328 1.83224 10.5175 3.60595 10.5175 5.78585C10.5175 7.96575 8.74328 9.73938 6.56268 9.73938ZM6.56268 1.38042C4.13289 1.38042 2.15591 3.35676 2.15591 5.78585C2.15591 8.21493 4.13289 10.1913 6.56268 10.1913C8.99254 10.1913 10.9694 8.21493 10.9694 5.78585C10.9694 3.35676 8.99254 1.38042 6.56268 1.38042Z" fill="white"/>
</svg>
