<svg width="24" height="24" viewBox="0 0 24 24" fill="none" xmlns="http://www.w3.org/2000/svg">
<g clip-path="url(#clip0_1316_16)">
<path fill-rule="evenodd" clip-rule="evenodd" d="M5.94005 5.94002C6.2213 5.65912 6.60254 5.50134 7.00005 5.50134C7.39755 5.50134 7.7788 5.65912 8.06005 5.94002L12 9.87802L15.94 5.93802C16.2231 5.66492 16.6021 5.5139 16.9953 5.5175C17.3886 5.5211 17.7648 5.67904 18.0428 5.95728C18.3208 6.23552 18.4783 6.61182 18.4816 7.00512C18.4848 7.39842 18.3334 7.77725 18.06 8.06002L13.06 13.06C12.7788 13.3409 12.3975 13.4987 12 13.4987C11.6025 13.4987 11.2213 13.3409 10.94 13.06L5.94005 8.06002C5.80066 7.92072 5.69008 7.75532 5.61464 7.57327C5.5392 7.39122 5.50037 7.19609 5.50037 6.99902C5.50037 6.80196 5.5392 6.60683 5.61464 6.42478C5.69008 6.24272 5.80066 6.07732 5.94005 5.93802V5.94002ZM5.94005 11.94C6.2213 11.6591 6.60254 11.5013 7.00005 11.5013C7.39755 11.5013 7.7788 11.6591 8.06005 11.94L12 15.878L15.94 11.938C16.2231 11.6649 16.6021 11.5139 16.9953 11.5175C17.3886 11.5211 17.7648 11.679 18.0428 11.9573C18.3208 12.2355 18.4783 12.6118 18.4816 13.0051C18.4848 13.3984 18.3334 13.7772 18.06 14.06L13.06 19.06C12.7788 19.3409 12.3975 19.4987 12 19.4987C11.6025 19.4987 11.2213 19.3409 10.94 19.06L5.94005 14.06C5.80066 13.9207 5.69008 13.7553 5.61464 13.5733C5.5392 13.3912 5.50037 13.1961 5.50037 12.999C5.50037 12.802 5.5392 12.6068 5.61464 12.4248C5.69008 12.2427 5.80066 12.0773 5.94005 11.938V11.94Z" fill="#333333"/>
</g>
<defs>
<clipPath id="clip0_1316_16">
<rect width="24" height="24" fill="white"/>
</clipPath>
</defs>
</svg>
