<svg width="26" height="26" viewBox="0 0 26 26" fill="none" xmlns="http://www.w3.org/2000/svg">
<g clip-path="url(#clip0_10_7)">
<path d="M10 0.188C8.71138 0.187868 7.43536 0.441566 6.2448 0.934607C5.05424 1.42765 3.97245 2.15037 3.06122 3.06151C2.14998 3.97266 1.42715 5.05437 0.933986 6.24488C0.440825 7.43539 0.186997 8.71139 0.186997 10C0.186865 11.2887 0.440596 12.5648 0.933699 13.7554C1.4268 14.9461 2.14962 16.0279 3.06086 16.9391C3.97211 17.8504 5.05394 18.5732 6.24457 19.0663C7.4352 19.5594 8.7113 19.8131 10 19.813C12.29 19.813 14.393 19.002 16.063 17.688L16.938 18.563C16.7583 18.9121 16.6947 19.3094 16.7564 19.6972C16.8181 20.0849 17.0019 20.4429 17.281 20.719L21.875 25.344C22.588 26.058 23.755 26.058 24.469 25.344L25.344 24.469C25.6866 24.1243 25.8789 23.658 25.8789 23.172C25.8789 22.686 25.6866 22.2197 25.344 21.875L20.719 17.281C20.4409 17.0037 20.0808 16.8236 19.6922 16.7674C19.3036 16.7112 18.9072 16.7819 18.562 16.969L17.687 16.094C18.8323 14.6487 19.5472 12.9098 19.7496 11.0768C19.952 9.24384 19.6337 7.39092 18.8313 5.73053C18.0288 4.07014 16.7747 2.66949 15.2127 1.68918C13.6508 0.708871 11.8441 0.188593 10 0.188ZM10 2C12.1217 2 14.1566 2.84285 15.6569 4.34315C17.1571 5.84344 18 7.87827 18 10C18 12.1217 17.1571 14.1566 15.6569 15.6569C14.1566 17.1571 12.1217 18 10 18C7.87826 18 5.84343 17.1571 4.34314 15.6569C2.84285 14.1566 2 12.1217 2 10C2 7.87827 2.84285 5.84344 4.34314 4.34315C5.84343 2.84285 7.87826 2 10 2ZM4.937 7.469C4.40363 8.33291 4.12238 9.32871 4.125 10.344C4.12381 11.0625 4.26446 11.7742 4.53889 12.4383C4.81331 13.1024 5.21611 13.7057 5.72419 14.2138C6.23227 14.7219 6.83563 15.1247 7.4997 15.3991C8.16376 15.6735 8.87546 15.8142 9.594 15.813C10.7236 15.8107 11.8252 15.4616 12.75 14.813C12.5007 14.8361 12.2503 14.8461 12 14.843C11.0719 14.8454 10.1525 14.6643 9.29453 14.3103C8.4366 13.9562 7.65708 13.4362 7.00076 12.7799C6.34444 12.1237 5.82425 11.3443 5.47009 10.4864C5.11592 9.62851 4.93475 8.70911 4.937 7.781C4.937 7.677 4.932 7.573 4.937 7.469Z" fill="#333333"/>
</g>
<defs>
<clipPath id="clip0_10_7">
<rect width="26" height="26" fill="white"/>
</clipPath>
</defs>
</svg>
